<?xml version="1.0" encoding="UTF-8"?>
<svg xmlns="http://www.w3.org/2000/svg" xmlns:xlink="http://www.w3.org/1999/xlink" width="44px" height="50px" viewBox="0 0 44 55" version="1.1">
<g id="surface1">
<path style=" stroke:none;fill-rule:nonzero;fill:rgb(100%,93.333334%,66.666669%);fill-opacity:1;" d="M 38.953125 44.097656 L 38.707031 50.574219 L 22.925781 50.648438 C 22.925781 50.648438 11.324219 50.65625 11.164062 50.65625 C 11 50.65625 6.507812 50.621094 6.507812 50.621094 L 5.804688 50.144531 C 5.804688 50.144531 5.058594 48.671875 5.09375 48.496094 C 5.125 48.320312 5.140625 46.3125 5.140625 46.3125 L 5.605469 44.679688 L 6.347656 44.121094 L 7.957031 43.976562 L 23.796875 43.910156 Z M 38.953125 44.097656 "/>
<path style=" stroke:none;fill-rule:nonzero;fill:rgb(50.196081%,20%,0%);fill-opacity:1;" d="M 40.601562 44.207031 C 40.601562 44.207031 39.574219 44.167969 39.40625 44.179688 C 39.238281 44.191406 39.113281 46.308594 39.113281 46.308594 L 38.925781 50.511719 L 16.003906 50.714844 L 6.207031 50.613281 L 4.25 49.148438 L 3.863281 47.574219 C 3.863281 47.574219 3.917969 46.101562 4.089844 45.894531 C 4.257812 45.691406 5.183594 44.503906 5.414062 44.46875 C 5.644531 44.433594 6.539062 44.121094 6.539062 44.121094 L 7.097656 44.023438 L 17.753906 43.933594 L 30.148438 43.996094 L 38.65625 43.808594 L 40.671875 43.746094 C 40.671875 43.746094 40.683594 42.871094 40.539062 42.828125 C 40.394531 42.789062 27.449219 42.609375 27.449219 42.609375 L 17.933594 42.570312 L 5.871094 42.714844 L 4.203125 43.417969 L 2.894531 44.9375 L 2.308594 46.789062 C 2.308594 46.789062 2.457031 48.699219 2.542969 48.832031 C 2.625 48.96875 3.308594 50.304688 3.457031 50.429688 C 3.605469 50.550781 5.484375 51.621094 5.484375 51.621094 L 6.964844 51.953125 L 28.058594 51.929688 L 39.285156 51.855469 C 39.285156 51.855469 40.605469 51.84375 40.613281 51.757812 C 40.621094 51.671875 40.605469 44.222656 40.601562 44.207031 Z M 40.601562 44.207031 "/>
<path style=" stroke:none;fill-rule:nonzero;fill:rgb(100%,80.000001%,0%);fill-opacity:1;" d="M 35.160156 3.734375 C 35.160156 3.734375 35.074219 4.519531 35.074219 4.628906 C 35.074219 4.734375 36.015625 5.308594 36.015625 5.308594 L 37.335938 5.996094 L 38.4375 7.253906 C 38.4375 7.253906 39.019531 8.238281 39.039062 8.359375 C 39.058594 8.476562 39.25 9.082031 39.363281 9.148438 C 39.472656 9.210938 40.152344 9.378906 40.152344 9.378906 C 40.152344 9.378906 40.75 9.3125 40.804688 9.210938 C 40.855469 9.109375 40.636719 3.847656 40.636719 3.847656 Z M 5.546875 13.65625 C 5.371094 13.652344 5.222656 13.664062 5.171875 13.699219 C 5.03125 13.792969 3.8125 14.542969 3.667969 14.613281 C 3.519531 14.6875 2.40625 15.542969 2.386719 15.628906 C 2.367188 15.714844 2.046875 16.617188 2.027344 16.804688 C 2.007812 16.988281 1.890625 17.914062 1.890625 18.058594 C 1.890625 18.203125 1.738281 18.628906 1.757812 18.832031 C 1.777344 19.039062 2.039062 19.4375 2.039062 19.582031 C 2.039062 19.730469 2.191406 20.011719 2.191406 20.011719 C 2.335938 19.707031 2.703125 18.253906 2.703125 18.253906 C 2.703125 18.253906 3.359375 17.382812 3.597656 17.21875 C 3.832031 17.050781 4.664062 16.40625 4.839844 16.292969 C 5.015625 16.179688 6.140625 15.671875 6.222656 15.636719 C 6.300781 15.597656 6.851562 15.148438 6.902344 15 C 6.957031 14.851562 6.503906 13.75 6.320312 13.714844 C 6.203125 13.695312 5.835938 13.65625 5.546875 13.65625 Z M 5.960938 22.949219 C 5.773438 22.949219 4.332031 23.476562 4.332031 23.476562 L 3.011719 24.304688 L 2.164062 25.300781 C 2.164062 25.300781 1.976562 26.054688 1.957031 26.175781 C 1.9375 26.292969 1.882812 26.902344 1.898438 27.007812 C 1.917969 27.117188 1.804688 28.183594 1.804688 28.183594 L 2.328125 28.261719 L 3.003906 27.105469 C 3.003906 27.105469 4.425781 25.933594 4.484375 25.84375 C 4.539062 25.753906 5.8125 25.132812 5.90625 25.132812 C 6 25.132812 6.75 24.652344 6.75 24.496094 C 6.75 24.335938 6.859375 23.320312 6.769531 23.25 C 6.679688 23.175781 6.148438 22.949219 5.960938 22.949219 Z M 6.050781 32.101562 L 4.824219 32.476562 L 2.796875 33.855469 L 2.109375 34.863281 L 1.820312 36.058594 L 1.726562 36.804688 C 1.726562 36.804688 1.796875 37.214844 1.796875 37.316406 C 1.796875 37.414062 2.011719 37.621094 2.011719 37.621094 L 2.148438 37.699219 C 2.304688 37.566406 3.082031 36.496094 3.171875 36.355469 C 3.261719 36.214844 4.433594 35.304688 4.617188 35.171875 C 4.800781 35.039062 5.644531 34.628906 5.773438 34.542969 C 5.902344 34.453125 6.703125 34.035156 6.730469 33.910156 C 6.757812 33.789062 6.816406 32.808594 6.816406 32.808594 Z M 40.015625 36.972656 L 39.316406 37.09375 L 39.160156 37.953125 L 38.15625 39.527344 C 38.15625 39.527344 36.996094 40.558594 36.65625 40.703125 C 36.3125 40.851562 35.425781 41.242188 35.425781 41.242188 L 35.195312 41.773438 L 35.195312 42.640625 L 35.652344 42.640625 L 40.695312 42.714844 C 40.695312 42.714844 40.859375 37.046875 40.523438 37.089844 Z M 40.015625 36.972656 "/>
<path style=" stroke:none;fill-rule:nonzero;fill:rgb(31.37255%,17.647059%,8.627451%);fill-opacity:1;" d="M 30.414062 3.921875 C 22.121094 3.921875 5.785156 4.007812 5.785156 4.007812 L 4.183594 4.757812 C 4.183594 4.757812 3.199219 5.976562 3.015625 6.101562 C 2.835938 6.230469 2.40625 7.414062 2.40625 7.414062 L 2.054688 16.183594 C 2.054688 16.183594 2.042969 16.273438 2.039062 16.285156 L 2.136719 16.429688 C 2.238281 16.09375 2.371094 15.6875 2.386719 15.628906 C 2.40625 15.542969 3.519531 14.6875 3.667969 14.613281 C 3.8125 14.542969 5.03125 13.792969 5.171875 13.699219 C 5.222656 13.664062 5.371094 13.652344 5.546875 13.65625 C 5.835938 13.65625 6.203125 13.695312 6.320312 13.714844 C 6.503906 13.75 6.957031 14.851562 6.902344 15 C 6.851562 15.148438 6.300781 15.597656 6.222656 15.636719 C 6.140625 15.671875 5.015625 16.179688 4.839844 16.292969 C 4.664062 16.40625 3.832031 17.050781 3.597656 17.21875 C 3.359375 17.382812 2.703125 18.253906 2.703125 18.253906 C 2.703125 18.253906 2.398438 19.453125 2.238281 19.886719 C 2.238281 19.921875 2.242188 19.949219 2.242188 19.960938 C 2.238281 19.976562 2.222656 19.988281 2.199219 19.996094 C 2.195312 20 2.195312 20.007812 2.191406 20.011719 C 2.191406 20.011719 2.1875 20 2.1875 20 C 2.132812 20.011719 2.042969 20.015625 1.957031 20.015625 C 1.980469 20.464844 2.015625 21.089844 2.015625 21.089844 L 1.953125 26.175781 C 1.957031 26.175781 1.957031 26.175781 1.957031 26.175781 C 1.976562 26.054688 2.164062 25.300781 2.164062 25.300781 L 3.011719 24.304688 L 4.332031 23.476562 C 4.332031 23.476562 5.773438 22.949219 5.960938 22.949219 C 6.148438 22.949219 6.679688 23.175781 6.769531 23.25 C 6.859375 23.320312 6.75 24.335938 6.75 24.496094 C 6.75 24.652344 6 25.132812 5.90625 25.132812 C 5.8125 25.132812 4.539062 25.753906 4.484375 25.84375 C 4.425781 25.933594 3.003906 27.105469 3.003906 27.105469 L 2.328125 28.261719 L 1.925781 28.203125 L 1.914062 28.753906 L 2.003906 35.121094 L 2.046875 35.128906 L 2.109375 34.863281 L 2.796875 33.855469 L 4.824219 32.476562 L 6.050781 32.101562 L 6.816406 32.808594 C 6.816406 32.808594 6.757812 33.789062 6.730469 33.910156 C 6.703125 34.035156 5.902344 34.453125 5.773438 34.542969 C 5.644531 34.628906 4.800781 35.039062 4.617188 35.171875 C 4.433594 35.304688 3.261719 36.214844 3.171875 36.355469 C 3.082031 36.496094 2.304688 37.566406 2.148438 37.699219 L 2.011719 37.621094 C 2.011719 37.621094 1.964844 37.574219 1.917969 37.519531 L 2.121094 38.425781 L 2.144531 45.484375 L 2.664062 44.957031 L 4.128906 43.53125 L 5.894531 42.714844 L 16.089844 42.539062 L 25.421875 42.644531 L 37.152344 42.671875 L 40.820312 42.761719 L 40.820312 42.695312 L 40.695312 42.628906 C 40.695312 42.632812 40.695312 42.714844 40.695312 42.714844 L 35.652344 42.640625 L 35.195312 42.640625 L 35.195312 41.773438 L 35.425781 41.242188 C 35.425781 41.242188 36.3125 40.851562 36.65625 40.703125 C 36.996094 40.558594 38.15625 39.527344 38.15625 39.527344 L 39.160156 37.953125 L 39.316406 37.09375 L 40.015625 36.972656 L 40.523438 37.089844 C 40.550781 37.085938 40.570312 37.125 40.59375 37.183594 L 40.839844 37.0625 L 40.855469 33.074219 L 40.65625 11.007812 C 40.65625 11.007812 40.617188 9.472656 40.460938 9.488281 C 40.304688 9.503906 39.832031 9.503906 39.832031 9.503906 L 39.355469 8.761719 C 39.355469 8.761719 38.691406 7.363281 38.542969 7.234375 C 38.394531 7.109375 37.332031 6.15625 37.148438 6.027344 C 36.96875 5.902344 36.070312 5.296875 36.070312 5.296875 L 35.21875 4.761719 C 35.21875 4.761719 35.417969 4.066406 35.121094 3.960938 C 35.046875 3.933594 33.175781 3.925781 30.414062 3.921875 Z M 1.917969 37.523438 L 1.914062 37.511719 L 1.914062 37.515625 C 1.914062 37.515625 1.917969 37.519531 1.917969 37.523438 Z M 1.925781 28.203125 L 1.925781 28.199219 C 1.925781 28.199219 1.921875 28.203125 1.921875 28.203125 Z M 1.925781 28.203125 "/>
<path style=" stroke:none;fill-rule:nonzero;fill:rgb(0%,0%,0%);fill-opacity:1;" d="M 31.867188 3.402344 C 29.542969 3.402344 26.671875 3.40625 23.148438 3.417969 C 6.089844 3.464844 5.4375 3.480469 4.722656 3.832031 C 3.78125 4.300781 2.835938 5.242188 2.292969 6.261719 C 1.894531 7.003906 1.855469 7.386719 1.71875 11.972656 C 1.636719 14.675781 1.578125 17.609375 1.589844 18.492188 C 1.597656 19.375 1.601562 21.4375 1.601562 23.074219 C 1.601562 24.710938 1.597656 26.773438 1.597656 27.660156 C 1.597656 28.542969 1.601562 30.605469 1.601562 32.242188 C 1.601562 33.878906 1.597656 35.941406 1.585938 36.824219 C 1.574219 37.707031 1.632812 40.726562 1.714844 43.535156 C 1.855469 48.292969 1.894531 48.695312 2.296875 49.507812 C 3.027344 50.992188 4.445312 52.039062 6.105469 52.320312 C 6.585938 52.402344 14.53125 52.476562 23.761719 52.488281 C 38.789062 52.507812 40.582031 52.480469 40.847656 52.214844 C 41.113281 51.945312 41.144531 49.484375 41.140625 27.882812 C 41.140625 14.660156 41.070312 3.738281 40.988281 3.605469 C 40.894531 3.464844 38.839844 3.40625 31.867188 3.402344 Z M 37.832031 4.128906 L 40.199219 4.128906 L 40.199219 6.585938 C 40.199219 8.585938 40.148438 9.042969 39.929688 9.042969 C 39.78125 9.042969 39.558594 8.722656 39.433594 8.335938 C 38.976562 6.917969 37.75 5.632812 36.363281 5.125 C 35.757812 4.902344 35.464844 4.6875 35.464844 4.460938 C 35.464844 4.160156 35.695312 4.128906 37.832031 4.128906 Z M 6.3125 4.316406 L 34.707031 4.316406 L 34.707031 4.847656 C 34.707031 5.304688 34.8125 5.402344 35.511719 5.59375 C 37.195312 6.058594 38.382812 7.226562 38.785156 8.820312 C 38.984375 9.617188 39.066406 9.710938 39.601562 9.765625 L 40.199219 9.824219 L 40.199219 36.636719 L 39.644531 36.636719 C 39.136719 36.636719 39.066406 36.722656 38.789062 37.660156 C 38.382812 39.070312 37.144531 40.300781 35.738281 40.710938 C 34.75 40.996094 34.707031 41.035156 34.707031 41.65625 L 34.707031 42.304688 L 6.3125 42.304688 L 6.316406 38.574219 C 6.320312 34.847656 6.320312 34.839844 6.789062 34.394531 C 7.433594 33.789062 7.429688 32.804688 6.789062 32.210938 C 6.320312 31.777344 6.3125 31.738281 6.3125 28.636719 C 6.3125 25.546875 6.320312 25.496094 6.789062 25.03125 C 7.414062 24.402344 7.414062 23.542969 6.789062 22.917969 C 6.320312 22.449219 6.3125 22.402344 6.3125 19.308594 C 6.3125 16.207031 6.320312 16.167969 6.789062 15.734375 C 7.429688 15.140625 7.429688 14.179688 6.789062 13.578125 L 6.3125 13.136719 Z M 5.558594 4.464844 L 5.558594 13.148438 L 4.734375 13.464844 C 4.28125 13.636719 3.710938 13.988281 3.46875 14.246094 C 3.226562 14.503906 2.953125 14.710938 2.859375 14.710938 C 2.761719 14.710938 2.714844 13.15625 2.75 11.074219 C 2.804688 7.777344 2.851562 7.367188 3.21875 6.679688 C 3.648438 5.886719 4.171875 5.34375 5.035156 4.792969 Z M 5.78125 13.992188 C 6.15625 13.988281 6.421875 14.152344 6.464844 14.539062 C 6.53125 15.113281 6.335938 15.289062 5.140625 15.730469 C 4.652344 15.910156 4.023438 16.238281 3.742188 16.460938 C 3.464844 16.679688 2.980469 17.25 2.671875 17.722656 L 2.109375 18.585938 L 2.207031 17.765625 C 2.261719 17.3125 2.550781 16.546875 2.851562 16.0625 C 3.589844 14.859375 4.953125 14.007812 5.78125 13.992188 Z M 5.558594 16.214844 L 5.558594 22.601562 L 5.015625 22.710938 C 4.71875 22.769531 4.082031 23.121094 3.597656 23.488281 L 2.71875 24.160156 L 2.71875 21.695312 C 2.71875 19.804688 2.789062 19.089844 3.023438 18.625 C 3.414062 17.851562 4.367188 16.835938 5.035156 16.488281 Z M 5.851562 23.28125 C 5.925781 23.28125 5.992188 23.285156 6.050781 23.300781 C 6.449219 23.398438 6.515625 23.515625 6.46875 24.011719 C 6.414062 24.539062 6.304688 24.636719 5.410156 24.9375 C 4.859375 25.125 4.152344 25.476562 3.835938 25.726562 C 3.523438 25.972656 3.011719 26.550781 2.707031 27.011719 C 2.277344 27.660156 2.152344 27.757812 2.152344 27.445312 C 2.148438 26.816406 2.65625 25.539062 3.183594 24.851562 C 3.765625 24.089844 5.136719 23.304688 5.851562 23.28125 Z M 5.453125 25.675781 C 5.511719 25.675781 5.558594 27.070312 5.558594 28.777344 L 5.558594 31.882812 L 5 32.003906 C 4.691406 32.070312 4.054688 32.421875 3.578125 32.78125 L 2.71875 33.441406 L 2.71875 30.964844 C 2.71875 28.296875 2.847656 27.796875 3.828125 26.746094 C 4.273438 26.265625 5.171875 25.675781 5.453125 25.675781 Z M 5.777344 32.605469 C 5.921875 32.609375 6.054688 32.640625 6.171875 32.703125 C 6.707031 32.972656 6.59375 33.773438 5.984375 34.015625 C 4.601562 34.558594 4.226562 34.761719 3.582031 35.328125 C 3.199219 35.664062 2.726562 36.242188 2.527344 36.617188 L 2.167969 37.296875 L 2.160156 36.730469 C 2.140625 35.007812 4.40625 32.566406 5.777344 32.605469 Z M 5.558594 34.898438 L 5.558594 42.421875 L 4.792969 42.757812 C 4.371094 42.945312 3.726562 43.402344 3.359375 43.78125 L 2.691406 44.46875 L 2.753906 40.945312 L 2.8125 37.421875 L 3.378906 36.628906 C 3.691406 36.191406 4.308594 35.625 4.753906 35.367188 Z M 39.941406 37.390625 C 40.144531 37.390625 40.199219 37.898438 40.199219 39.847656 L 40.199219 42.304688 L 37.832031 42.304688 C 35.671875 42.304688 35.464844 42.277344 35.464844 41.960938 C 35.464844 41.726562 35.785156 41.488281 36.496094 41.191406 C 37.730469 40.683594 38.871094 39.515625 39.34375 38.277344 C 39.53125 37.789062 39.796875 37.390625 39.941406 37.390625 Z M 32.96875 43 C 40.222656 43.011719 40.640625 43.125 40.25 43.515625 C 40.1875 43.578125 32.480469 43.628906 23.121094 43.628906 C 7.824219 43.628906 6.046875 43.660156 5.5 43.933594 C 4.070312 44.65625 3.421875 45.675781 3.402344 47.21875 C 3.382812 48.722656 4.015625 49.777344 5.34375 50.46875 L 6.359375 51 L 39.433594 51 L 39.554688 50.527344 C 39.617188 50.265625 39.640625 48.777344 39.601562 47.21875 C 39.539062 44.613281 39.558594 44.382812 39.867188 44.382812 C 40.171875 44.382812 40.199219 44.675781 40.199219 47.976562 L 40.199219 51.566406 L 6.011719 51.566406 L 5.007812 51.066406 C 2.839844 49.988281 2.015625 47.386719 3.148438 45.214844 C 3.578125 44.394531 4.664062 43.492188 5.507812 43.253906 C 5.980469 43.121094 11.871094 43.039062 23.207031 43.011719 C 27.371094 43 30.550781 42.992188 32.96875 43 Z M 22.5625 44.199219 C 31.710938 44.203125 38.304688 44.273438 38.304688 44.375 C 38.304688 44.464844 38.253906 44.675781 38.191406 44.839844 C 38.085938 45.109375 36.492188 45.140625 22.101562 45.140625 C 13.3125 45.140625 6.125 45.070312 6.125 44.980469 C 6.125 44.894531 6.28125 44.679688 6.472656 44.507812 C 6.792969 44.21875 8.136719 44.191406 22.5625 44.199219 Z M 21.835938 45.519531 L 37.925781 45.519531 L 37.925781 46.464844 L 21.722656 46.464844 C 7.023438 46.464844 5.527344 46.4375 5.632812 46.164062 C 5.695312 46 5.746094 45.789062 5.746094 45.691406 C 5.746094 45.589844 12.191406 45.519531 21.835938 45.519531 Z M 5.558594 46.839844 L 37.925781 46.839844 L 37.925781 47.785156 L 5.558594 47.785156 Z M 21.722656 48.164062 L 37.925781 48.164062 L 37.925781 49.109375 L 21.835938 49.109375 C 12.191406 49.109375 5.746094 49.039062 5.746094 48.9375 C 5.746094 48.839844 5.695312 48.628906 5.632812 48.464844 C 5.527344 48.191406 7.023438 48.164062 21.722656 48.164062 Z M 22.101562 49.488281 C 36.492188 49.488281 38.085938 49.515625 38.191406 49.785156 C 38.253906 49.949219 38.304688 50.121094 38.304688 50.164062 C 38.304688 50.207031 31.167969 50.242188 22.441406 50.242188 C 6.585938 50.242188 6.125 50.226562 6.125 49.636719 C 6.125 49.554688 13.3125 49.488281 22.101562 49.488281 Z M 22.101562 49.488281 "/>
</g>
</svg>
