<?xml version="1.0" encoding="UTF-8"?>
<svg xmlns="http://www.w3.org/2000/svg" xmlns:xlink="http://www.w3.org/1999/xlink" width="32px" height="33px" viewBox="0 0 32 33" version="1.1">
<defs>
<filter id="alpha" filterUnits="objectBoundingBox" x="0%" y="0%" width="100%" height="100%">
  <feColorMatrix type="matrix" in="SourceGraphic" values="0 0 0 0 1 0 0 0 0 1 0 0 0 0 1 0 0 0 1 0"/>
</filter>
<mask id="mask0">
  <g filter="url(#alpha)">
<rect x="0" y="0" width="32" height="33" style="fill:rgb(0%,0%,0%);fill-opacity:0.164706;stroke:none;"/>
  </g>
</mask>
<clipPath id="clip1">
  <rect x="0" y="0" width="32" height="33"/>
</clipPath>
<g id="surface5" clip-path="url(#clip1)">
<path style=" stroke:none;fill-rule:nonzero;fill:rgb(1.960784%,30.588236%,3.921569%);fill-opacity:1;" d="M 5.15625 3.78125 C 4.429688 3.761719 4.484375 4.816406 4.675781 5.757812 C 4.511719 5.609375 4.417969 5.523438 4.28125 5.398438 C 3.351562 4.550781 3.441406 5.613281 3.417969 6.550781 C 3.402344 7.046875 3.421875 7.539062 3.457031 7.984375 C 3.234375 7.894531 3.039062 7.8125 2.789062 7.710938 C 0.90625 6.957031 2.433594 7.816406 2.386719 9.460938 C 2.339844 11.105469 3.050781 11.121094 4.277344 9.746094 C 5.503906 8.367188 10.984375 12.28125 10.984375 12.28125 C 10.984375 12.28125 14.351562 11.082031 13.542969 10.238281 C 13.246094 9.929688 12.835938 9.472656 12.453125 8.929688 C 12.316406 8.960938 12.140625 8.976562 11.914062 8.972656 C 9.894531 8.917969 9.171875 9.25 8.34375 8.992188 C 7.519531 8.734375 6.367188 7.527344 5.875 3.871094 C 5.875 3.855469 5.871094 3.84375 5.871094 3.828125 C 5.683594 3.800781 5.457031 3.789062 5.15625 3.78125 Z M 5.15625 3.78125 "/>
</g>
<mask id="mask1">
  <g filter="url(#alpha)">
<rect x="0" y="0" width="32" height="33" style="fill:rgb(0%,0%,0%);fill-opacity:0.105882;stroke:none;"/>
  </g>
</mask>
<clipPath id="clip2">
  <rect x="0" y="0" width="32" height="33"/>
</clipPath>
<g id="surface8" clip-path="url(#clip2)">
<path style=" stroke:none;fill-rule:nonzero;fill:rgb(31.764707%,23.529412%,3.921569%);fill-opacity:1;" d="M 12.261719 7.585938 C 11.308594 8.316406 10.5 9.285156 9.757812 9.917969 C 7.855469 11.546875 6.359375 14.308594 7.730469 15.929688 C 12.125 21.148438 14.070312 23.703125 22.699219 28.964844 C 30.976562 34.011719 30.988281 30.011719 29.933594 27.835938 C 29.703125 27.359375 29.46875 26.882812 29.234375 26.40625 C 26.875 26.722656 23.789062 26.011719 19.882812 23.074219 C 10.664062 16.148438 10.921875 10.628906 12.261719 7.585938 Z M 12.261719 7.585938 "/>
</g>
</defs>
<g id="surface1">
<path style="fill-rule:nonzero;fill:rgb(31.764707%,74.117649%,3.921569%);fill-opacity:1;stroke-width:3.773;stroke-linecap:butt;stroke-linejoin:miter;stroke:rgb(0%,30.19608%,0%);stroke-opacity:1;stroke-miterlimit:4;" d="M 154.295628 758.062762 C 152.138218 758.029157 152.071836 760.851983 151.889286 767.001709 C 151.690141 774.562849 153.167137 775.638211 155.108805 778.713074 C 157.033879 781.80474 147.109794 775.470186 146.711503 771.420775 C 146.313212 767.371365 145.831944 766.833684 140.272465 766.682461 C 137.18571 766.598449 137.418047 771.135132 138.231224 775.184543 C 137.534215 774.546046 137.135924 774.176391 136.555083 773.63871 C 132.605364 769.99256 132.987059 774.562849 132.887486 778.595457 C 132.821105 780.729378 132.904082 782.846497 133.053441 784.761986 C 132.1075 784.375528 131.277727 784.022674 130.215618 783.585809 C 122.216606 780.34292 128.705431 784.039477 128.506285 791.113343 C 128.30714 798.170406 131.310918 798.254419 136.538487 792.339928 C 141.749461 786.408634 165.03289 803.244771 165.03289 803.244771 C 165.03289 803.244771 179.338175 798.086394 175.902915 794.457047 C 172.467655 790.8277 165.630326 782.527249 166.343931 774.462034 C 167.074131 766.396818 167.970286 769.99256 168.186027 762.414618 C 168.368577 755.66 166.609458 760.885588 160.419352 765.170233 C 160.635093 764.699763 160.850834 764.212489 161.083171 763.725216 C 163.223985 759.222137 160.153825 760.146276 156.170915 758.516431 C 155.407524 758.213985 154.793492 758.062762 154.295628 758.062762 Z M 154.295628 758.062762 " transform="matrix(0.235381,0,0,0.23248,-28.087738,-174.624936)"/>
<use xlink:href="#surface5" mask="url(#mask0)"/>
<path style="fill-rule:nonzero;fill:rgb(81.960785%,23.529412%,3.921569%);fill-opacity:1;stroke-width:19.997;stroke-linecap:butt;stroke-linejoin:miter;stroke:rgb(36.862746%,15.686275%,0%);stroke-opacity:1;stroke-miterlimit:4;" d="M 227.726169 354.08145 C 270.562807 316.944353 323.778754 229.311492 416.31293 314.094504 C 450.529465 345.531903 494.069785 409.742567 540.424833 490.07269 C 586.867842 570.491871 636.125578 666.852396 682.040825 762.678574 C 705.702131 812.194704 705.43825 903.478935 519.138455 788.327217 C 324.834277 668.366379 281.030076 610.122586 181.986842 491.230441 C 151.200757 454.182402 184.88953 391.218547 227.726169 354.08145 Z M 227.726169 354.08145 " transform="matrix(0.0444093,0,0,0.043862,-0.390496,-5.628366)"/>
<use xlink:href="#surface8" mask="url(#mask1)"/>
<path style="fill:none;stroke-width:15;stroke-linecap:butt;stroke-linejoin:miter;stroke:rgb(52.549022%,8.627451%,0%);stroke-opacity:1;stroke-miterlimit:4;" d="M 291.409385 498.087891 C 291.409385 498.087891 302.844216 555.26299 388.605454 475.20004 " transform="matrix(0.0444093,0,0,0.043862,-0.390496,-5.628366)"/>
<path style="fill:none;stroke-width:15;stroke-linecap:butt;stroke-linejoin:miter;stroke:rgb(52.549022%,8.627451%,0%);stroke-opacity:1;stroke-miterlimit:4;" d="M 405.669741 623.748428 C 405.669741 623.748428 445.691651 635.236882 508.583225 560.962688 " transform="matrix(0.0444093,0,0,0.043862,-0.390496,-5.628366)"/>
<path style="fill:none;stroke-width:15;stroke-linecap:butt;stroke-linejoin:miter;stroke:rgb(52.549022%,8.627451%,0%);stroke-opacity:1;stroke-miterlimit:4;" d="M 508.583225 698.111679 C 508.583225 698.111679 548.605136 720.910473 565.669423 680.923526 " transform="matrix(0.0444093,0,0,0.043862,-0.390496,-5.628366)"/>
</g>
</svg>
