<?xml version="1.0" encoding="UTF-8"?>
<svg xmlns="http://www.w3.org/2000/svg" xmlns:xlink="http://www.w3.org/1999/xlink" width="32px" height="32px" viewBox="0 0 32 32" version="1.1">
<g id="surface1">
<path style=" stroke:none;fill-rule:nonzero;fill:rgb(100%,100%,100%);fill-opacity:1;" d="M 6.398438 9.601562 L 9.601562 9.601562 L 9.601562 12.800781 L 6.398438 12.800781 Z M 6.398438 9.601562 "/>
<path style=" stroke:none;fill-rule:nonzero;fill:rgb(0%,0%,0%);fill-opacity:1;" d="M 9.601562 3.199219 L 12.800781 3.199219 L 12.800781 6.398438 L 9.601562 6.398438 Z M 9.601562 3.199219 "/>
<path style=" stroke:none;fill-rule:nonzero;fill:rgb(0%,0%,0%);fill-opacity:1;" d="M 6.398438 3.199219 L 9.601562 3.199219 L 9.601562 6.398438 L 6.398438 6.398438 Z M 6.398438 3.199219 "/>
<path style=" stroke:none;fill-rule:nonzero;fill:rgb(0%,0%,0%);fill-opacity:1;" d="M 12.800781 6.398438 L 16 6.398438 L 16 9.601562 L 12.800781 9.601562 Z M 12.800781 6.398438 "/>
<path style=" stroke:none;fill-rule:nonzero;fill:rgb(0%,0%,0%);fill-opacity:1;" d="M 16 6.398438 L 19.199219 6.398438 L 19.199219 9.601562 L 16 9.601562 Z M 16 6.398438 "/>
<path style=" stroke:none;fill-rule:nonzero;fill:rgb(0%,0%,0%);fill-opacity:1;" d="M 19.199219 3.199219 L 22.398438 3.199219 L 22.398438 6.398438 L 19.199219 6.398438 Z M 19.199219 3.199219 "/>
<path style=" stroke:none;fill-rule:nonzero;fill:rgb(0%,0%,0%);fill-opacity:1;" d="M 22.398438 3.199219 L 25.601562 3.199219 L 25.601562 6.398438 L 22.398438 6.398438 Z M 22.398438 3.199219 "/>
<path style=" stroke:none;fill-rule:nonzero;fill:rgb(0%,0%,0%);fill-opacity:1;" d="M 25.601562 3.199219 L 28.800781 3.199219 L 28.800781 6.398438 L 25.601562 6.398438 Z M 25.601562 3.199219 "/>
<path style=" stroke:none;fill-rule:nonzero;fill:rgb(0%,0%,0%);fill-opacity:1;" d="M 28.800781 6.398438 L 32 6.398438 L 32 9.601562 L 28.800781 9.601562 Z M 28.800781 6.398438 "/>
<path style=" stroke:none;fill-rule:nonzero;fill:rgb(0%,0%,0%);fill-opacity:1;" d="M 28.800781 9.601562 L 32 9.601562 L 32 12.800781 L 28.800781 12.800781 Z M 28.800781 9.601562 "/>
<path style=" stroke:none;fill-rule:nonzero;fill:rgb(0%,0%,0%);fill-opacity:1;" d="M 3.199219 3.199219 L 6.398438 3.199219 L 6.398438 6.398438 L 3.199219 6.398438 Z M 3.199219 3.199219 "/>
<path style=" stroke:none;fill-rule:nonzero;fill:rgb(0%,0%,0%);fill-opacity:1;" d="M 0 6.398438 L 3.199219 6.398438 L 3.199219 9.601562 L 0 9.601562 Z M 0 6.398438 "/>
<path style=" stroke:none;fill-rule:nonzero;fill:rgb(0%,0%,0%);fill-opacity:1;" d="M 0 9.601562 L 3.199219 9.601562 L 3.199219 12.800781 L 0 12.800781 Z M 0 9.601562 "/>
<path style=" stroke:none;fill-rule:nonzero;fill:rgb(0%,0%,0%);fill-opacity:1;" d="M 0 12.800781 L 3.199219 12.800781 L 3.199219 16 L 0 16 Z M 0 12.800781 "/>
<path style=" stroke:none;fill-rule:nonzero;fill:rgb(0%,0%,0%);fill-opacity:1;" d="M 28.800781 12.800781 L 32 12.800781 L 32 16 L 28.800781 16 Z M 28.800781 12.800781 "/>
<path style=" stroke:none;fill-rule:nonzero;fill:rgb(0%,0%,0%);fill-opacity:1;" d="M 3.199219 16 L 6.398438 16 L 6.398438 19.199219 L 3.199219 19.199219 Z M 3.199219 16 "/>
<path style=" stroke:none;fill-rule:nonzero;fill:rgb(0%,0%,0%);fill-opacity:1;" d="M 6.398438 19.199219 L 9.601562 19.199219 L 9.601562 22.398438 L 6.398438 22.398438 Z M 6.398438 19.199219 "/>
<path style=" stroke:none;fill-rule:nonzero;fill:rgb(0%,0%,0%);fill-opacity:1;" d="M 9.601562 22.398438 L 12.800781 22.398438 L 12.800781 25.601562 L 9.601562 25.601562 Z M 9.601562 22.398438 "/>
<path style=" stroke:none;fill-rule:nonzero;fill:rgb(0%,0%,0%);fill-opacity:1;" d="M 12.800781 25.601562 L 16 25.601562 L 16 28.800781 L 12.800781 28.800781 Z M 12.800781 25.601562 "/>
<path style=" stroke:none;fill-rule:nonzero;fill:rgb(0%,0%,0%);fill-opacity:1;" d="M 16 25.601562 L 19.199219 25.601562 L 19.199219 28.800781 L 16 28.800781 Z M 16 25.601562 "/>
<path style=" stroke:none;fill-rule:nonzero;fill:rgb(0%,0%,0%);fill-opacity:1;" d="M 19.199219 22.398438 L 22.398438 22.398438 L 22.398438 25.601562 L 19.199219 25.601562 Z M 19.199219 22.398438 "/>
<path style=" stroke:none;fill-rule:nonzero;fill:rgb(0%,0%,0%);fill-opacity:1;" d="M 22.398438 19.199219 L 25.601562 19.199219 L 25.601562 22.398438 L 22.398438 22.398438 Z M 22.398438 19.199219 "/>
<path style=" stroke:none;fill-rule:nonzero;fill:rgb(0%,0%,0%);fill-opacity:1;" d="M 25.601562 16 L 28.800781 16 L 28.800781 19.199219 L 25.601562 19.199219 Z M 25.601562 16 "/>
<path style=" stroke:none;fill-rule:nonzero;fill:rgb(61.56863%,0%,0%);fill-opacity:1;" d="M 3.199219 6.398438 L 6.398438 6.398438 L 6.398438 9.601562 L 3.199219 9.601562 Z M 3.199219 6.398438 "/>
<path style=" stroke:none;fill-rule:nonzero;fill:rgb(100%,0%,0%);fill-opacity:1;" d="M 6.398438 6.398438 L 9.601562 6.398438 L 9.601562 9.601562 L 6.398438 9.601562 Z M 6.398438 6.398438 "/>
<path style=" stroke:none;fill-rule:nonzero;fill:rgb(100%,0%,0%);fill-opacity:1;" d="M 9.601562 6.398438 L 12.800781 6.398438 L 12.800781 9.601562 L 9.601562 9.601562 Z M 9.601562 6.398438 "/>
<path style=" stroke:none;fill-rule:nonzero;fill:rgb(61.56863%,0%,0%);fill-opacity:1;" d="M 3.199219 9.601562 L 6.398438 9.601562 L 6.398438 12.800781 L 3.199219 12.800781 Z M 3.199219 9.601562 "/>
<path style=" stroke:none;fill-rule:nonzero;fill:rgb(100%,0%,0%);fill-opacity:1;" d="M 6.398438 9.601562 L 9.601562 9.601562 L 9.601562 12.800781 L 6.398438 12.800781 Z M 6.398438 9.601562 "/>
<path style=" stroke:none;fill-rule:nonzero;fill:rgb(100%,0%,0%);fill-opacity:1;" d="M 9.601562 9.601562 L 12.800781 9.601562 L 12.800781 12.800781 L 9.601562 12.800781 Z M 9.601562 9.601562 "/>
<path style=" stroke:none;fill-rule:nonzero;fill:rgb(61.56863%,0%,0%);fill-opacity:1;" d="M 3.199219 12.800781 L 6.398438 12.800781 L 6.398438 16 L 3.199219 16 Z M 3.199219 12.800781 "/>
<path style=" stroke:none;fill-rule:nonzero;fill:rgb(100%,0%,0%);fill-opacity:1;" d="M 6.398438 12.800781 L 9.601562 12.800781 L 9.601562 16 L 6.398438 16 Z M 6.398438 12.800781 "/>
<path style=" stroke:none;fill-rule:nonzero;fill:rgb(100%,0%,0%);fill-opacity:1;" d="M 9.601562 12.800781 L 12.800781 12.800781 L 12.800781 16 L 9.601562 16 Z M 9.601562 12.800781 "/>
<path style=" stroke:none;fill-rule:nonzero;fill:rgb(61.56863%,0%,0%);fill-opacity:1;" d="M 6.398438 16 L 9.601562 16 L 9.601562 19.199219 L 6.398438 19.199219 Z M 6.398438 16 "/>
<path style=" stroke:none;fill-rule:nonzero;fill:rgb(100%,0%,0%);fill-opacity:1;" d="M 9.601562 16 L 12.800781 16 L 12.800781 19.199219 L 9.601562 19.199219 Z M 9.601562 16 "/>
<path style=" stroke:none;fill-rule:nonzero;fill:rgb(61.56863%,0%,0%);fill-opacity:1;" d="M 9.601562 19.199219 L 12.800781 19.199219 L 12.800781 22.398438 L 9.601562 22.398438 Z M 9.601562 19.199219 "/>
<path style=" stroke:none;fill-rule:nonzero;fill:rgb(100%,0%,0%);fill-opacity:1;" d="M 12.800781 19.199219 L 16 19.199219 L 16 22.398438 L 12.800781 22.398438 Z M 12.800781 19.199219 "/>
<path style=" stroke:none;fill-rule:nonzero;fill:rgb(61.56863%,0%,0%);fill-opacity:1;" d="M 12.800781 22.398438 L 16 22.398438 L 16 25.601562 L 12.800781 25.601562 Z M 12.800781 22.398438 "/>
<path style=" stroke:none;fill-rule:nonzero;fill:rgb(100%,0%,0%);fill-opacity:1;" d="M 16 22.398438 L 19.199219 22.398438 L 19.199219 25.601562 L 16 25.601562 Z M 16 22.398438 "/>
<path style=" stroke:none;fill-rule:nonzero;fill:rgb(100%,0%,0%);fill-opacity:1;" d="M 16 19.199219 L 19.199219 19.199219 L 19.199219 22.398438 L 16 22.398438 Z M 16 19.199219 "/>
<path style=" stroke:none;fill-rule:nonzero;fill:rgb(100%,0%,0%);fill-opacity:1;" d="M 12.800781 16 L 16 16 L 16 19.199219 L 12.800781 19.199219 Z M 12.800781 16 "/>
<path style=" stroke:none;fill-rule:nonzero;fill:rgb(100%,0%,0%);fill-opacity:1;" d="M 16 16 L 19.199219 16 L 19.199219 19.199219 L 16 19.199219 Z M 16 16 "/>
<path style=" stroke:none;fill-rule:nonzero;fill:rgb(100%,0%,0%);fill-opacity:1;" d="M 16 12.800781 L 19.199219 12.800781 L 19.199219 16 L 16 16 Z M 16 12.800781 "/>
<path style=" stroke:none;fill-rule:nonzero;fill:rgb(100%,0%,0%);fill-opacity:1;" d="M 12.800781 12.800781 L 16 12.800781 L 16 16 L 12.800781 16 Z M 12.800781 12.800781 "/>
<path style=" stroke:none;fill-rule:nonzero;fill:rgb(100%,0%,0%);fill-opacity:1;" d="M 12.800781 9.601562 L 16 9.601562 L 16 12.800781 L 12.800781 12.800781 Z M 12.800781 9.601562 "/>
<path style=" stroke:none;fill-rule:nonzero;fill:rgb(100%,0%,0%);fill-opacity:1;" d="M 16 9.601562 L 19.199219 9.601562 L 19.199219 12.800781 L 16 12.800781 Z M 16 9.601562 "/>
<path style=" stroke:none;fill-rule:nonzero;fill:rgb(100%,0%,0%);fill-opacity:1;" d="M 19.199219 12.800781 L 22.398438 12.800781 L 22.398438 16 L 19.199219 16 Z M 19.199219 12.800781 "/>
<path style=" stroke:none;fill-rule:nonzero;fill:rgb(100%,0%,0%);fill-opacity:1;" d="M 22.398438 16 L 25.601562 16 L 25.601562 19.199219 L 22.398438 19.199219 Z M 22.398438 16 "/>
<path style=" stroke:none;fill-rule:nonzero;fill:rgb(100%,0%,0%);fill-opacity:1;" d="M 19.199219 16 L 22.398438 16 L 22.398438 19.199219 L 19.199219 19.199219 Z M 19.199219 16 "/>
<path style=" stroke:none;fill-rule:nonzero;fill:rgb(100%,0%,0%);fill-opacity:1;" d="M 19.199219 19.199219 L 22.398438 19.199219 L 22.398438 22.398438 L 19.199219 22.398438 Z M 19.199219 19.199219 "/>
<path style=" stroke:none;fill-rule:nonzero;fill:rgb(100%,0%,0%);fill-opacity:1;" d="M 22.398438 12.800781 L 25.601562 12.800781 L 25.601562 16 L 22.398438 16 Z M 22.398438 12.800781 "/>
<path style=" stroke:none;fill-rule:nonzero;fill:rgb(100%,34.117648%,34.117648%);fill-opacity:1;" d="M 25.601562 12.800781 L 28.800781 12.800781 L 28.800781 16 L 25.601562 16 Z M 25.601562 12.800781 "/>
<path style=" stroke:none;fill-rule:nonzero;fill:rgb(100%,0%,0%);fill-opacity:1;" d="M 19.199219 9.601562 L 22.398438 9.601562 L 22.398438 12.800781 L 19.199219 12.800781 Z M 19.199219 9.601562 "/>
<path style=" stroke:none;fill-rule:nonzero;fill:rgb(100%,0%,0%);fill-opacity:1;" d="M 22.398438 9.601562 L 25.601562 9.601562 L 25.601562 12.800781 L 22.398438 12.800781 Z M 22.398438 9.601562 "/>
<path style=" stroke:none;fill-rule:nonzero;fill:rgb(100%,34.117648%,34.117648%);fill-opacity:1;" d="M 25.601562 9.601562 L 28.800781 9.601562 L 28.800781 12.800781 L 25.601562 12.800781 Z M 25.601562 9.601562 "/>
<path style=" stroke:none;fill-rule:nonzero;fill:rgb(100%,34.117648%,34.117648%);fill-opacity:1;" d="M 25.601562 6.398438 L 28.800781 6.398438 L 28.800781 9.601562 L 25.601562 9.601562 Z M 25.601562 6.398438 "/>
<path style=" stroke:none;fill-rule:nonzero;fill:rgb(100%,34.117648%,34.117648%);fill-opacity:1;" d="M 22.398438 6.398438 L 25.601562 6.398438 L 25.601562 9.601562 L 22.398438 9.601562 Z M 22.398438 6.398438 "/>
<path style=" stroke:none;fill-rule:nonzero;fill:rgb(100%,34.117648%,34.117648%);fill-opacity:1;" d="M 19.199219 6.398438 L 22.398438 6.398438 L 22.398438 9.601562 L 19.199219 9.601562 Z M 19.199219 6.398438 "/>
</g>
</svg>
